<svg xmlns="http://www.w3.org/2000/svg" xmlns:xlink="http://www.w3.org/1999/xlink" contentStyleType="text/css" data-diagram-type="CLASS" height="1175px" preserveAspectRatio="none" style="width:1298px;height:1175px;background:#FFFFFF;" version="1.1" viewBox="0 0 1298 1175" width="1298px" zoomAndPan="magnify"><?plantuml $version$?><defs/><g><!--class Board--><g class="entity" data-qualified-name="Board" data-source-line="8" id="ent0001"><rect fill="#F1F1F1" height="314.9508" rx="2.5" ry="2.5" style="stroke:#181818;stroke-width:0.5;" width="291.6909" x="971.26" y="547.15"/><ellipse cx="1092.9475" cy="563.15" fill="#ADD1B2" rx="11" ry="11" style="stroke:#181818;stroke-width:1;"/><path d="M1092.4163,570.0719 Q1090.6663,570.0719 1089.5257,569.3375 Q1088.4007,568.5875 1087.8382,567.2438 Q1087.2913,565.8844 1087.2913,564.0875 Q1087.2913,562.0563 1087.9475,560.6031 Q1088.6038,559.15 1089.885,558.3688 Q1091.1663,557.5875 1093.0413,557.5875 Q1093.9319,557.5875 1094.6038,557.775 Q1095.2757,557.9469 1095.9632,558.2906 L1095.1507,560.3063 Q1094.5257,559.9938 1093.9788,559.8688 Q1093.4475,559.7438 1092.9632,559.7438 Q1091.7913,559.7438 1091.0882,560.275 Q1090.385,560.8063 1090.0882,561.7594 Q1089.7913,562.7125 1089.7913,563.9781 Q1089.7913,565.9938 1090.51,566.9625 Q1091.2288,567.9156 1092.8225,567.9156 Q1093.4163,567.9156 1094.0413,567.7594 Q1094.6663,567.6031 1095.4944,567.2281 L1095.4944,569.4469 Q1094.76,569.7594 1093.9632,569.9156 Q1093.1819,570.0719 1092.4163,570.0719 Z " fill="#000000"/><text fill="#000000" font-family="sans-serif" font-size="14" lengthAdjust="spacing" textLength="39.8159" x="1113.4475" y="568.582">Board</text><line style="stroke:#181818;stroke-width:0.5;" x1="972.26" x2="1261.9509" y1="579.15" y2="579.15"/><g data-visibility-modifier="PRIVATE_FIELD"><rect fill="none" height="6" style="stroke:#C82930;stroke-width:1;" width="6" x="979.26" y="591.184"/></g><text fill="#000000" font-family="sans-serif" font-size="14" lengthAdjust="spacing" textLength="72.7577" x="991.26" y="598.1159">cells : Cell[]</text><g data-visibility-modifier="PUBLIC_FIELD"><ellipse cx="982.26" cy="613.2519" fill="none" rx="3" ry="3" style="stroke:#038048;stroke-width:1;"/></g><text fill="#000000" font-family="sans-serif" font-size="14" lengthAdjust="spacing" text-decoration="underline" textLength="168.9093" x="991.26" y="617.1839">BOX_SIZE : static const int</text><g data-visibility-modifier="PUBLIC_FIELD"><ellipse cx="982.26" cy="632.3198" fill="none" rx="3" ry="3" style="stroke:#038048;stroke-width:1;"/></g><text fill="#000000" font-family="sans-serif" font-size="14" lengthAdjust="spacing" text-decoration="underline" textLength="134.4555" x="991.26" y="636.2518">SIZE : static const int</text><line style="stroke:#181818;stroke-width:0.5;" x1="972.26" x2="1261.9509" y1="644.3538" y2="644.3538"/><g data-visibility-modifier="PUBLIC_METHOD"><ellipse cx="982.26" cy="659.3877" fill="#84BE84" rx="3" ry="3" style="stroke:#038048;stroke-width:1;"/></g><text fill="#000000" font-family="sans-serif" font-size="14" lengthAdjust="spacing" textLength="48.2158" x="991.26" y="663.3197">Board()</text><g data-visibility-modifier="PUBLIC_METHOD"><ellipse cx="982.26" cy="678.4556" fill="#84BE84" rx="3" ry="3" style="stroke:#038048;stroke-width:1;"/></g><text fill="#000000" font-family="sans-serif" font-size="14" lengthAdjust="spacing" textLength="159.9214" x="991.26" y="682.3876">at(int row, int col) : Cell&amp;</text><g data-visibility-modifier="PUBLIC_METHOD"><ellipse cx="982.26" cy="697.5235" fill="#84BE84" rx="3" ry="3" style="stroke:#038048;stroke-width:1;"/></g><text fill="#000000" font-family="sans-serif" font-size="14" lengthAdjust="spacing" textLength="212.2811" x="991.26" y="701.4555">at(int row, int col) : Cell&amp; {query}</text><g data-visibility-modifier="PUBLIC_METHOD"><ellipse cx="982.26" cy="716.5915" fill="#84BE84" rx="3" ry="3" style="stroke:#038048;stroke-width:1;"/></g><text fill="#000000" font-family="sans-serif" font-size="14" lengthAdjust="spacing" textLength="213.3312" x="991.26" y="720.5234">operator()(int row, int col) : Cell&amp;</text><g data-visibility-modifier="PUBLIC_METHOD"><ellipse cx="982.26" cy="735.6594" fill="#84BE84" rx="3" ry="3" style="stroke:#038048;stroke-width:1;"/></g><text fill="#000000" font-family="sans-serif" font-size="14" lengthAdjust="spacing" textLength="265.6909" x="991.26" y="739.5914">operator()(int row, int col) : Cell&amp; {query}</text><g data-visibility-modifier="PUBLIC_METHOD"><ellipse cx="982.26" cy="754.7273" fill="#84BE84" rx="3" ry="3" style="stroke:#038048;stroke-width:1;"/></g><text fill="#000000" font-family="sans-serif" font-size="14" lengthAdjust="spacing" textLength="246.315" x="991.26" y="758.6593">isEmpty(int row, int col) : bool {query}</text><g data-visibility-modifier="PUBLIC_METHOD"><ellipse cx="982.26" cy="773.7952" fill="#84BE84" rx="3" ry="3" style="stroke:#038048;stroke-width:1;"/></g><text fill="#000000" font-family="sans-serif" font-size="14" lengthAdjust="spacing" textLength="239.4271" x="991.26" y="777.7272">isFixed(int row, int col) : bool {query}</text><g data-visibility-modifier="PUBLIC_METHOD"><ellipse cx="982.26" cy="792.8631" fill="#84BE84" rx="3" ry="3" style="stroke:#038048;stroke-width:1;"/></g><text fill="#000000" font-family="sans-serif" font-size="14" lengthAdjust="spacing" textLength="134.4135" x="991.26" y="796.7951">isFull() : bool {query}</text><g data-visibility-modifier="PUBLIC_METHOD"><ellipse cx="982.26" cy="811.931" fill="#84BE84" rx="3" ry="3" style="stroke:#038048;stroke-width:1;"/></g><text fill="#000000" font-family="sans-serif" font-size="14" lengthAdjust="spacing" textLength="240.449" x="991.26" y="815.863">getValue(int row, int col) : int {query}</text><g data-visibility-modifier="PUBLIC_METHOD"><ellipse cx="982.26" cy="830.999" fill="#84BE84" rx="3" ry="3" style="stroke:#038048;stroke-width:1;"/></g><text fill="#000000" font-family="sans-serif" font-size="14" lengthAdjust="spacing" textLength="79.0997" x="991.26" y="834.9309">clear() : void</text><g data-visibility-modifier="PUBLIC_METHOD"><ellipse cx="982.26" cy="850.0669" fill="#84BE84" rx="3" ry="3" style="stroke:#038048;stroke-width:1;"/></g><text fill="#000000" font-family="sans-serif" font-size="14" lengthAdjust="spacing" textLength="260.147" x="991.26" y="853.9989">setValue(int row, int col, int value) : void</text></g><!--class Cell--><g class="entity" data-qualified-name="Cell" data-source-line="26" id="ent0002"><rect fill="#F1F1F1" height="238.6792" rx="2.5" ry="2.5" style="stroke:#181818;stroke-width:0.5;" width="192.8234" x="1020.69" y="922.1"/><ellipse cx="1100.8677" cy="938.1" fill="#ADD1B2" rx="11" ry="11" style="stroke:#181818;stroke-width:1;"/><path d="M1100.3365,945.0219 Q1098.5865,945.0219 1097.4459,944.2875 Q1096.3209,943.5375 1095.7584,942.1937 Q1095.2115,940.8344 1095.2115,939.0375 Q1095.2115,937.0062 1095.8677,935.5531 Q1096.524,934.1 1097.8052,933.3187 Q1099.0865,932.5375 1100.9615,932.5375 Q1101.8521,932.5375 1102.524,932.725 Q1103.1959,932.8969 1103.8834,933.2406 L1103.0709,935.2562 Q1102.4459,934.9437 1101.899,934.8187 Q1101.3677,934.6937 1100.8834,934.6937 Q1099.7115,934.6937 1099.0084,935.225 Q1098.3052,935.7562 1098.0084,936.7094 Q1097.7115,937.6625 1097.7115,938.9281 Q1097.7115,940.9437 1098.4302,941.9125 Q1099.149,942.8656 1100.7427,942.8656 Q1101.3365,942.8656 1101.9615,942.7094 Q1102.5865,942.5531 1103.4146,942.1781 L1103.4146,944.3969 Q1102.6802,944.7094 1101.8834,944.8656 Q1101.1021,945.0219 1100.3365,945.0219 Z " fill="#000000"/><text fill="#000000" font-family="sans-serif" font-size="14" lengthAdjust="spacing" textLength="23.9679" x="1121.3677" y="943.532">Cell</text><line style="stroke:#181818;stroke-width:0.5;" x1="1021.69" x2="1212.5134" y1="954.1" y2="954.1"/><g data-visibility-modifier="PRIVATE_FIELD"><rect fill="none" height="6" style="stroke:#C82930;stroke-width:1;" width="6" x="1028.69" y="966.134"/></g><text fill="#000000" font-family="sans-serif" font-size="14" lengthAdjust="spacing" textLength="72.5337" x="1040.69" y="973.0659">fixed : bool</text><g data-visibility-modifier="PRIVATE_FIELD"><rect fill="none" height="6" style="stroke:#C82930;stroke-width:1;" width="6" x="1028.69" y="985.2019"/></g><text fill="#000000" font-family="sans-serif" font-size="14" lengthAdjust="spacing" textLength="63.4757" x="1040.69" y="992.1339">value : int</text><line style="stroke:#181818;stroke-width:0.5;" x1="1021.69" x2="1212.5134" y1="1000.2358" y2="1000.2358"/><g data-visibility-modifier="PUBLIC_METHOD"><ellipse cx="1031.69" cy="1015.2698" fill="#84BE84" rx="3" ry="3" style="stroke:#038048;stroke-width:1;"/></g><text fill="#000000" font-family="sans-serif" font-size="14" lengthAdjust="spacing" textLength="32.3679" x="1040.69" y="1019.2018">Cell()</text><g data-visibility-modifier="PUBLIC_METHOD"><ellipse cx="1031.69" cy="1034.3377" fill="#84BE84" rx="3" ry="3" style="stroke:#038048;stroke-width:1;"/></g><text fill="#000000" font-family="sans-serif" font-size="14" lengthAdjust="spacing" textLength="160.9854" x="1040.69" y="1038.2697">Cell(int value, bool fixed)</text><g data-visibility-modifier="PUBLIC_METHOD"><ellipse cx="1031.69" cy="1053.4056" fill="#84BE84" rx="3" ry="3" style="stroke:#038048;stroke-width:1;"/></g><text fill="#000000" font-family="sans-serif" font-size="14" lengthAdjust="spacing" textLength="152.9494" x="1040.69" y="1057.3376">isEmpty() : bool {query}</text><g data-visibility-modifier="PUBLIC_METHOD"><ellipse cx="1031.69" cy="1072.4735" fill="#84BE84" rx="3" ry="3" style="stroke:#038048;stroke-width:1;"/></g><text fill="#000000" font-family="sans-serif" font-size="14" lengthAdjust="spacing" textLength="146.0614" x="1040.69" y="1076.4055">isFixed() : bool {query}</text><g data-visibility-modifier="PUBLIC_METHOD"><ellipse cx="1031.69" cy="1091.5415" fill="#84BE84" rx="3" ry="3" style="stroke:#038048;stroke-width:1;"/></g><text fill="#000000" font-family="sans-serif" font-size="14" lengthAdjust="spacing" textLength="147.0834" x="1040.69" y="1095.4734">getValue() : int {query}</text><g data-visibility-modifier="PUBLIC_METHOD"><ellipse cx="1031.69" cy="1110.6094" fill="#84BE84" rx="3" ry="3" style="stroke:#038048;stroke-width:1;"/></g><text fill="#000000" font-family="sans-serif" font-size="14" lengthAdjust="spacing" textLength="79.0997" x="1040.69" y="1114.5414">clear() : void</text><g data-visibility-modifier="PUBLIC_METHOD"><ellipse cx="1031.69" cy="1129.6773" fill="#84BE84" rx="3" ry="3" style="stroke:#038048;stroke-width:1;"/></g><text fill="#000000" font-family="sans-serif" font-size="14" lengthAdjust="spacing" textLength="166.8234" x="1040.69" y="1133.6093">setFixed(bool fixed) : void</text><g data-visibility-modifier="PUBLIC_METHOD"><ellipse cx="1031.69" cy="1148.7452" fill="#84BE84" rx="3" ry="3" style="stroke:#038048;stroke-width:1;"/></g><text fill="#000000" font-family="sans-serif" font-size="14" lengthAdjust="spacing" textLength="159.3894" x="1040.69" y="1152.6772">setValue(int value) : void</text></g><!--class ConsoleUI--><g class="entity" data-qualified-name="ConsoleUI" data-source-line="40" id="ent0003"><rect fill="#F1F1F1" height="238.6792" rx="2.5" ry="2.5" style="stroke:#181818;stroke-width:0.5;" width="332.0388" x="951.08" y="7"/><ellipse cx="1079.0325" cy="23" fill="#ADD1B2" rx="11" ry="11" style="stroke:#181818;stroke-width:1;"/><path d="M1078.5013,29.9219 Q1076.7513,29.9219 1075.6107,29.1875 Q1074.4857,28.4375 1073.9232,27.0938 Q1073.3763,25.7344 1073.3763,23.9375 Q1073.3763,21.9063 1074.0325,20.4531 Q1074.6888,19 1075.97,18.2188 Q1077.2513,17.4375 1079.1263,17.4375 Q1080.0169,17.4375 1080.6888,17.625 Q1081.3607,17.7969 1082.0482,18.1406 L1081.2357,20.1563 Q1080.6107,19.8438 1080.0638,19.7188 Q1079.5325,19.5938 1079.0482,19.5938 Q1077.8763,19.5938 1077.1732,20.125 Q1076.47,20.6563 1076.1732,21.6094 Q1075.8763,22.5625 1075.8763,23.8281 Q1075.8763,25.8438 1076.595,26.8125 Q1077.3138,27.7656 1078.9075,27.7656 Q1079.5013,27.7656 1080.1263,27.6094 Q1080.7513,27.4531 1081.5794,27.0781 L1081.5794,29.2969 Q1080.845,29.6094 1080.0482,29.7656 Q1079.2669,29.9219 1078.5013,29.9219 Z " fill="#000000"/><text fill="#000000" font-family="sans-serif" font-size="14" lengthAdjust="spacing" textLength="67.6337" x="1099.5325" y="28.432">ConsoleUI</text><line style="stroke:#181818;stroke-width:0.5;" x1="952.08" x2="1282.1188" y1="39" y2="39"/><g data-visibility-modifier="PRIVATE_FIELD"><rect fill="none" height="6" style="stroke:#C82930;stroke-width:1;" width="6" x="959.08" y="51.034"/></g><text fill="#000000" font-family="sans-serif" font-size="14" lengthAdjust="spacing" textLength="137.0595" x="971.08" y="57.9659">game : SudokuGame</text><g data-visibility-modifier="PRIVATE_FIELD"><rect fill="none" height="6" style="stroke:#C82930;stroke-width:1;" width="6" x="959.08" y="70.1019"/></g><text fill="#000000" font-family="sans-serif" font-size="14" lengthAdjust="spacing" textLength="103.6696" x="971.08" y="77.0339">selectedCol : int</text><g data-visibility-modifier="PRIVATE_FIELD"><rect fill="none" height="6" style="stroke:#C82930;stroke-width:1;" width="6" x="959.08" y="89.1698"/></g><text fill="#000000" font-family="sans-serif" font-size="14" lengthAdjust="spacing" textLength="110.9216" x="971.08" y="96.1018">selectedRow : int</text><g data-visibility-modifier="PRIVATE_FIELD"><rect fill="none" height="6" style="stroke:#C82930;stroke-width:1;" width="6" x="959.08" y="108.2377"/></g><text fill="#000000" font-family="sans-serif" font-size="14" lengthAdjust="spacing" textLength="175.7134" x="971.08" y="115.1697">statusMessage : std::string</text><line style="stroke:#181818;stroke-width:0.5;" x1="952.08" x2="1282.1188" y1="123.2717" y2="123.2717"/><g data-visibility-modifier="PUBLIC_METHOD"><ellipse cx="962.08" cy="138.3056" fill="#84BE84" rx="3" ry="3" style="stroke:#038048;stroke-width:1;"/></g><text fill="#000000" font-family="sans-serif" font-size="14" lengthAdjust="spacing" textLength="76.0337" x="971.08" y="142.2376">ConsoleUI()</text><g data-visibility-modifier="PRIVATE_METHOD"><rect fill="#F24D5C" height="6" style="stroke:#C82930;stroke-width:1;" width="6" x="959.08" y="154.3735"/></g><text fill="#000000" font-family="sans-serif" font-size="14" lengthAdjust="spacing" textLength="158.4374" x="971.08" y="161.3055">clearSelectedCell() : void</text><g data-visibility-modifier="PRIVATE_METHOD"><rect fill="#F24D5C" height="6" style="stroke:#C82930;stroke-width:1;" width="6" x="959.08" y="173.4415"/></g><text fill="#000000" font-family="sans-serif" font-size="14" lengthAdjust="spacing" textLength="175.0133" x="971.08" y="180.3734">enterValue(int value) : void</text><g data-visibility-modifier="PRIVATE_METHOD"><rect fill="#F24D5C" height="6" style="stroke:#C82930;stroke-width:1;" width="6" x="959.08" y="192.5094"/></g><text fill="#000000" font-family="sans-serif" font-size="14" lengthAdjust="spacing" textLength="306.0388" x="971.08" y="199.4414">moveSelection(int rowDelta, int colDelta) : void</text><g data-visibility-modifier="PRIVATE_METHOD"><rect fill="#F24D5C" height="6" style="stroke:#C82930;stroke-width:1;" width="6" x="959.08" y="211.5773"/></g><text fill="#000000" font-family="sans-serif" font-size="14" lengthAdjust="spacing" textLength="144.2134" x="971.08" y="218.5093">render() : void {query}</text><g data-visibility-modifier="PUBLIC_METHOD"><ellipse cx="962.08" cy="233.6452" fill="#84BE84" rx="3" ry="3" style="stroke:#038048;stroke-width:1;"/></g><text fill="#000000" font-family="sans-serif" font-size="14" lengthAdjust="spacing" textLength="70.3217" x="971.08" y="237.5772">run() : void</text></g><!--class Generator--><g class="entity" data-qualified-name="Generator" data-source-line="54" id="ent0004"><rect fill="#F1F1F1" height="143.3396" rx="2.5" ry="2.5" style="stroke:#181818;stroke-width:0.5;" width="347.9988" x="61.1" y="54.67"/><ellipse cx="197.0605" cy="70.67" fill="#ADD1B2" rx="11" ry="11" style="stroke:#181818;stroke-width:1;"/><path d="M196.5293,77.5919 Q194.7793,77.5919 193.6386,76.8575 Q192.5136,76.1075 191.9511,74.7638 Q191.4043,73.4044 191.4043,71.6075 Q191.4043,69.5763 192.0605,68.1231 Q192.7168,66.67 193.998,65.8888 Q195.2793,65.1075 197.1543,65.1075 Q198.0449,65.1075 198.7168,65.295 Q199.3886,65.4669 200.0761,65.8106 L199.2636,67.8263 Q198.6386,67.5138 198.0918,67.3888 Q197.5605,67.2638 197.0761,67.2638 Q195.9043,67.2638 195.2011,67.795 Q194.498,68.3263 194.2011,69.2794 Q193.9043,70.2325 193.9043,71.4981 Q193.9043,73.5138 194.623,74.4825 Q195.3418,75.4356 196.9355,75.4356 Q197.5293,75.4356 198.1543,75.2794 Q198.7793,75.1231 199.6074,74.7481 L199.6074,76.9669 Q198.873,77.2794 198.0761,77.4356 Q197.2949,77.5919 196.5293,77.5919 Z " fill="#000000"/><text fill="#000000" font-family="sans-serif" font-size="14" lengthAdjust="spacing" textLength="67.5777" x="217.5605" y="76.102">Generator</text><line style="stroke:#181818;stroke-width:0.5;" x1="62.1" x2="408.0988" y1="86.67" y2="86.67"/><line style="stroke:#181818;stroke-width:0.5;" x1="62.1" x2="408.0988" y1="94.67" y2="94.67"/><g data-visibility-modifier="PUBLIC_METHOD"><ellipse cx="72.1" cy="109.704" fill="#84BE84" rx="3" ry="3" style="stroke:#038048;stroke-width:1;"/></g><text fill="#000000" font-family="sans-serif" font-size="14" lengthAdjust="spacing" textLength="254.099" x="81.1" y="113.6359">generatePuzzle(int emptyCells) : Board</text><g data-visibility-modifier="PRIVATE_METHOD"><rect fill="#F24D5C" height="6" style="stroke:#C82930;stroke-width:1;" width="6" x="69.1" y="125.7719"/></g><text fill="#000000" font-family="sans-serif" font-size="14" lengthAdjust="spacing" textLength="202.0892" x="81.1" y="132.7039">generateSolvedBoard() : Board</text><g data-visibility-modifier="PRIVATE_METHOD"><rect fill="#F24D5C" height="6" style="stroke:#C82930;stroke-width:1;" width="6" x="69.1" y="144.8398"/></g><text fill="#000000" font-family="sans-serif" font-size="14" lengthAdjust="spacing" textLength="197.0913" x="81.1" y="151.7718">fillBoard(Board&amp; board) : bool</text><g data-visibility-modifier="PRIVATE_METHOD"><rect fill="#F24D5C" height="6" style="stroke:#C82930;stroke-width:1;" width="6" x="69.1" y="163.9077"/></g><text fill="#000000" font-family="sans-serif" font-size="14" lengthAdjust="spacing" textLength="239.9311" x="81.1" y="170.8397">markFixedCells(Board&amp; board) : void</text><g data-visibility-modifier="PRIVATE_METHOD"><rect fill="#F24D5C" height="6" style="stroke:#C82930;stroke-width:1;" width="6" x="69.1" y="182.9756"/></g><text fill="#000000" font-family="sans-serif" font-size="14" lengthAdjust="spacing" textLength="321.9988" x="81.1" y="189.9076">removeCells(Board&amp; board, int emptyCells) : void</text></g><!--class Solver--><g class="entity" data-qualified-name="Solver" data-source-line="63" id="ent0005"><rect fill="#F1F1F1" height="86.1358" rx="2.5" ry="2.5" style="stroke:#181818;stroke-width:0.5;" width="471.8144" x="444.2" y="83.27"/><ellipse cx="655.5783" cy="99.27" fill="#ADD1B2" rx="11" ry="11" style="stroke:#181818;stroke-width:1;"/><path d="M655.047,106.1919 Q653.297,106.1919 652.1564,105.4575 Q651.0314,104.7075 650.4689,103.3637 Q649.922,102.0044 649.922,100.2075 Q649.922,98.1762 650.5783,96.7231 Q651.2345,95.27 652.5158,94.4887 Q653.797,93.7075 655.672,93.7075 Q656.5626,93.7075 657.2345,93.895 Q657.9064,94.0669 658.5939,94.4106 L657.7814,96.4262 Q657.1564,96.1137 656.6095,95.9887 Q656.0783,95.8637 655.5939,95.8637 Q654.422,95.8637 653.7189,96.395 Q653.0158,96.9262 652.7189,97.8794 Q652.422,98.8325 652.422,100.0981 Q652.422,102.1137 653.1408,103.0825 Q653.8595,104.0356 655.4533,104.0356 Q656.047,104.0356 656.672,103.8794 Q657.297,103.7231 658.1251,103.3481 L658.1251,105.5669 Q657.3908,105.8794 656.5939,106.0356 Q655.8126,106.1919 655.047,106.1919 Z " fill="#000000"/><text fill="#000000" font-family="sans-serif" font-size="14" lengthAdjust="spacing" textLength="40.5578" x="676.0783" y="104.702">Solver</text><line style="stroke:#181818;stroke-width:0.5;" x1="445.2" x2="915.0144" y1="115.27" y2="115.27"/><line style="stroke:#181818;stroke-width:0.5;" x1="445.2" x2="915.0144" y1="123.27" y2="123.27"/><g data-visibility-modifier="PRIVATE_METHOD"><rect fill="#F24D5C" height="6" style="stroke:#C82930;stroke-width:1;" width="6" x="452.2" y="135.304"/></g><text fill="#000000" font-family="sans-serif" font-size="14" lengthAdjust="spacing" textLength="445.8144" x="464.2" y="142.2359">findEmptyCell(const Board&amp; board, int&amp; row, int&amp; col) : bool {query}</text><g data-visibility-modifier="PUBLIC_METHOD"><ellipse cx="455.2" cy="157.3719" fill="#84BE84" rx="3" ry="3" style="stroke:#038048;stroke-width:1;"/></g><text fill="#000000" font-family="sans-serif" font-size="14" lengthAdjust="spacing" textLength="175.4193" x="464.2" y="161.3039">solve(Board&amp; board) : bool</text></g><!--class SudokuGame--><g class="entity" data-qualified-name="SudokuGame" data-source-line="69" id="ent0006"><rect fill="#F1F1F1" height="181.4754" rx="2.5" ry="2.5" style="stroke:#181818;stroke-width:0.5;" width="303.9269" x="965.14" y="305.67"/><ellipse cx="1068.5646" cy="321.67" fill="#ADD1B2" rx="11" ry="11" style="stroke:#181818;stroke-width:1;"/><path d="M1068.0334,328.5919 Q1066.2834,328.5919 1065.1427,327.8575 Q1064.0177,327.1075 1063.4552,325.7637 Q1062.9084,324.4044 1062.9084,322.6075 Q1062.9084,320.5762 1063.5646,319.1231 Q1064.2209,317.67 1065.5021,316.8887 Q1066.7834,316.1075 1068.6584,316.1075 Q1069.549,316.1075 1070.2209,316.295 Q1070.8927,316.4669 1071.5802,316.8106 L1070.7677,318.8262 Q1070.1427,318.5137 1069.5959,318.3887 Q1069.0646,318.2637 1068.5802,318.2637 Q1067.4084,318.2637 1066.7052,318.795 Q1066.0021,319.3262 1065.7052,320.2794 Q1065.4084,321.2325 1065.4084,322.4981 Q1065.4084,324.5137 1066.1271,325.4825 Q1066.8459,326.4356 1068.4396,326.4356 Q1069.0334,326.4356 1069.6584,326.2794 Q1070.2834,326.1231 1071.1115,325.7481 L1071.1115,327.9669 Q1070.3771,328.2794 1069.5802,328.4356 Q1068.799,328.5919 1068.0334,328.5919 Z " fill="#000000"/><text fill="#000000" font-family="sans-serif" font-size="14" lengthAdjust="spacing" textLength="88.5777" x="1089.0646" y="327.102">SudokuGame</text><line style="stroke:#181818;stroke-width:0.5;" x1="966.14" x2="1268.0669" y1="337.67" y2="337.67"/><g data-visibility-modifier="PRIVATE_FIELD"><rect fill="none" height="6" style="stroke:#C82930;stroke-width:1;" width="6" x="973.14" y="349.704"/></g><text fill="#000000" font-family="sans-serif" font-size="14" lengthAdjust="spacing" textLength="90.1737" x="985.14" y="356.6359">board : Board</text><line style="stroke:#181818;stroke-width:0.5;" x1="966.14" x2="1268.0669" y1="364.7379" y2="364.7379"/><g data-visibility-modifier="PUBLIC_METHOD"><ellipse cx="976.14" cy="379.7719" fill="#84BE84" rx="3" ry="3" style="stroke:#038048;stroke-width:1;"/></g><text fill="#000000" font-family="sans-serif" font-size="14" lengthAdjust="spacing" textLength="96.9776" x="985.14" y="383.7039">SudokuGame()</text><g data-visibility-modifier="PUBLIC_METHOD"><ellipse cx="976.14" cy="398.8398" fill="#84BE84" rx="3" ry="3" style="stroke:#038048;stroke-width:1;"/></g><text fill="#000000" font-family="sans-serif" font-size="14" lengthAdjust="spacing" textLength="183.2313" x="985.14" y="402.7718">getBoard() : Board&amp; {query}</text><g data-visibility-modifier="PUBLIC_METHOD"><ellipse cx="976.14" cy="417.9077" fill="#84BE84" rx="3" ry="3" style="stroke:#038048;stroke-width:1;"/></g><text fill="#000000" font-family="sans-serif" font-size="14" lengthAdjust="spacing" textLength="197.7912" x="985.14" y="421.8397">clearCell(int row, int col) : bool</text><g data-visibility-modifier="PUBLIC_METHOD"><ellipse cx="976.14" cy="436.9756" fill="#84BE84" rx="3" ry="3" style="stroke:#038048;stroke-width:1;"/></g><text fill="#000000" font-family="sans-serif" font-size="14" lengthAdjust="spacing" textLength="183.3573" x="985.14" y="440.9076">isCompleted() : bool {query}</text><g data-visibility-modifier="PUBLIC_METHOD"><ellipse cx="976.14" cy="456.0435" fill="#84BE84" rx="3" ry="3" style="stroke:#038048;stroke-width:1;"/></g><text fill="#000000" font-family="sans-serif" font-size="14" lengthAdjust="spacing" textLength="277.9269" x="985.14" y="459.9755">makeMove(int row, int col, int value) : bool</text><g data-visibility-modifier="PUBLIC_METHOD"><ellipse cx="976.14" cy="475.1115" fill="#84BE84" rx="3" ry="3" style="stroke:#038048;stroke-width:1;"/></g><text fill="#000000" font-family="sans-serif" font-size="14" lengthAdjust="spacing" textLength="207.2412" x="985.14" y="479.0434">newGame(int emptyCells) : void</text></g><!--class SudokuRules--><g class="entity" data-qualified-name="SudokuRules" data-source-line="80" id="ent0007"><rect fill="#F1F1F1" height="143.3396" rx="2.5" ry="2.5" style="stroke:#181818;stroke-width:0.5;" width="456.2045" x="7" y="324.74"/><ellipse cx="188.2924" cy="340.74" fill="#ADD1B2" rx="11" ry="11" style="stroke:#181818;stroke-width:1;"/><path d="M187.7612,347.6619 Q186.0112,347.6619 184.8705,346.9275 Q183.7455,346.1775 183.183,344.8338 Q182.6362,343.4744 182.6362,341.6775 Q182.6362,339.6463 183.2924,338.1931 Q183.9487,336.74 185.2299,335.9588 Q186.5112,335.1775 188.3862,335.1775 Q189.2768,335.1775 189.9487,335.365 Q190.6205,335.5369 191.308,335.8806 L190.4955,337.8963 Q189.8705,337.5838 189.3237,337.4588 Q188.7924,337.3338 188.308,337.3338 Q187.1362,337.3338 186.433,337.865 Q185.7299,338.3963 185.433,339.3494 Q185.1362,340.3025 185.1362,341.5681 Q185.1362,343.5838 185.8549,344.5525 Q186.5737,345.5056 188.1674,345.5056 Q188.7612,345.5056 189.3862,345.3494 Q190.0112,345.1931 190.8393,344.8181 L190.8393,347.0369 Q190.1049,347.3494 189.308,347.5056 Q188.5268,347.6619 187.7612,347.6619 Z " fill="#000000"/><text fill="#000000" font-family="sans-serif" font-size="14" lengthAdjust="spacing" textLength="85.1197" x="208.7924" y="346.172">SudokuRules</text><line style="stroke:#181818;stroke-width:0.5;" x1="8" x2="462.2045" y1="356.74" y2="356.74"/><line style="stroke:#181818;stroke-width:0.5;" x1="8" x2="462.2045" y1="364.74" y2="364.74"/><g data-visibility-modifier="PUBLIC_METHOD"><ellipse cx="18" cy="379.774" fill="#84BE84" rx="3" ry="3" style="stroke:#038048;stroke-width:1;"/></g><text fill="#000000" font-family="sans-serif" font-size="14" lengthAdjust="spacing" text-decoration="underline" textLength="263.087" x="27" y="383.7059">isBoardValid(const Board&amp; board) : bool</text><g data-visibility-modifier="PUBLIC_METHOD"><ellipse cx="18" cy="398.8419" fill="#84BE84" rx="3" ry="3" style="stroke:#038048;stroke-width:1;"/></g><text fill="#000000" font-family="sans-serif" font-size="14" lengthAdjust="spacing" text-decoration="underline" textLength="423.6805" x="27" y="402.7739">isMoveValid(const Board&amp; board, int row, int col, int value) : bool</text><g data-visibility-modifier="PUBLIC_METHOD"><ellipse cx="18" cy="417.9098" fill="#84BE84" rx="3" ry="3" style="stroke:#038048;stroke-width:1;"/></g><text fill="#000000" font-family="sans-serif" font-size="14" lengthAdjust="spacing" text-decoration="underline" textLength="430.2045" x="27" y="421.8418">isValueInBox(const Board&amp; board, int row, int col, int value) : bool</text><g data-visibility-modifier="PUBLIC_METHOD"><ellipse cx="18" cy="436.9777" fill="#84BE84" rx="3" ry="3" style="stroke:#038048;stroke-width:1;"/></g><text fill="#000000" font-family="sans-serif" font-size="14" lengthAdjust="spacing" text-decoration="underline" textLength="402.9465" x="27" y="440.9097">isValueInColumn(const Board&amp; board, int col, int value) : bool</text><g data-visibility-modifier="PUBLIC_METHOD"><ellipse cx="18" cy="456.0456" fill="#84BE84" rx="3" ry="3" style="stroke:#038048;stroke-width:1;"/></g><text fill="#000000" font-family="sans-serif" font-size="14" lengthAdjust="spacing" text-decoration="underline" textLength="386.2585" x="27" y="459.9776">isValueInRow(const Board&amp; board, int row, int value) : bool</text></g><!--reverse link Board to Cell--><g class="link" data-entity-1="ent0001" data-entity-2="ent0002" data-link-type="composition" data-source-line="99" id="lnk8"><path codeLine="99" d="M1117.1,874.25 C1117.1,894.33 1117.1,902.62 1117.1,921.96" fill="none" id="Board-backto-Cell" style="stroke:#181818;stroke-width:1;"/><polygon fill="#181818" points="1117.1,862.25,1113.1,868.25,1117.1,874.25,1121.1,868.25,1117.1,862.25" style="stroke:#181818;stroke-width:1;stroke-linejoin:miter;stroke-miterlimit:10;"/></g><!--reverse link ConsoleUI to SudokuGame--><g class="link" data-entity-1="ent0003" data-entity-2="ent0006" data-link-type="composition" data-source-line="102" id="lnk9"><path codeLine="102" d="M1117.1,258.09 C1117.1,277.98 1117.1,286.32 1117.1,305.33" fill="none" id="ConsoleUI-backto-SudokuGame" style="stroke:#181818;stroke-width:1;"/><polygon fill="#181818" points="1117.1,246.09,1113.1,252.09,1117.1,258.09,1121.1,252.09,1117.1,246.09" style="stroke:#181818;stroke-width:1;stroke-linejoin:miter;stroke-miterlimit:10;"/></g><!--reverse link SudokuGame to Board--><g class="link" data-entity-1="ent0006" data-entity-2="ent0001" data-link-type="composition" data-source-line="105" id="lnk10"><path codeLine="105" d="M1117.1,499.63 C1117.1,518.33 1117.1,526.55 1117.1,546.85" fill="none" id="SudokuGame-backto-Board" style="stroke:#181818;stroke-width:1;"/><polygon fill="#181818" points="1117.1,487.63,1113.1,493.63,1117.1,499.63,1121.1,493.63,1117.1,487.63" style="stroke:#181818;stroke-width:1;stroke-linejoin:miter;stroke-miterlimit:10;"/></g><?plantuml-src hLPBRzim33xNlqAdFBOQkVUsPbcHGzUXmOPXnJ2eDkjgaQLCajD7aFy-Yd9ijR6J3bWFBKMHrCUF3tSoP5Utlo5pbWqdIP99RYqxrzpaR9ESl2TfD4Q9kv5GZXdzSCgya6avPcTi2b8EZboppPyApDCMpVGA37VQZCO7ext5h8sQPdYsjVxc9_eBEojNxgdJ-LPh6I4IzfDuXFoDffMKeuwR0jmtBYleZEB5rdHZ7NSYsxBpg--_5lCVCxG8AhHNrddpsApV99F03Q5PQv6ZmlQX2CBQtpNcssHNRSyQ5TiBL6iI6fVJaEsTfmblKn9g3YAk3t1xYB4zXb9wD6XxiWnH8rGz7FHcZ2ng2L_d8UtToUUU5hpqZo-gN2-h2poWpeB42O5yYW_Mk1hTjNveTLYaobw2jRm0Abf-TcQT4QhmNUepMUn2GTr90NSAoe7fGtwIbdeDmLLejQllHv2EDqMcK-HYGENGCXTnRoerwc3b0bIOEcAb22VuKZq_om0AV9qzSEkzQJLumch3XPPhoEk54TtV2Ic3bduFi1FmpxXfeBJaPaaLfT1xLaqwdeDzav3_IsYl4YDab1M2KVbiPpiAqxGNRT0Cpw1d4rWViJkVwDccXOZGzaXzHbujJNuWNd4NxqtgdMOik_OKZTjKboi9hdlaIhw4I-Jms7geeobu8B37wQN4hYi9bX9jLfUmb0TsjSWxk8xUYbmymZwF0FGuz2WSZTHSdUl7_neFDq5LgjwG_n09zyTnP2_3UEhnPp9aStKFHZYkCc069FVRmTwBLVYO1viFHM6WeAiEc_2fVvUcz1b0ZtOtUcMq1fCaQcX_5pgtmV8PB3OUqz5_4ybV?></g></svg>